<svg version="1" xmlns="http://www.w3.org/2000/svg" viewBox="0 0 456 1902">
  <path fill="#fff9ec" d="M63 58h326v215H63z"/>
  <g fill="#002537">
    <path d="M228 443c-48 0-79 10-79 17l-24 1094c0 44 207 44 207 0L307 460c0-7-31-17-79-17zM228 408c38 0 75 4 85 12 21-86 143-163 143-273C456-4 228 0 228 0S0-4 0 147c0 110 123 187 143 273 10-8 47-12 85-12zM70 160C70 55 228 58 228 58s158-3 158 102c0 36-27 67-57 96h-18l-1-1c-12-6-30-17-48-17-20 0-53 7-83 13l-26 5h-26c-30-29-57-60-57-96zM287 1611a331 331 0 0 1-117 1c0 9 0 121-23 150 0 0 67 70 65 140h11v-166h-13l-1-1v-9l1-1h37l1 1v9l-1 1h-13v166h11c-2-70 65-140 65-140-23-30-23-146-23-151zm-39 88l-1 1h-37l-1-1v-9l1-1h37l1 1v9zm0-33l-1 2h-37l-1-2v-8l1-2h37l1 1v9z"/>
    <path d="M287 202c-1-2-3-4-6-4 1 0 1 0 0 0-4 0-10 5-16 10l17 22 9 12 17 8-8-18c-3-10-8-22-13-30zM160 230c7-6 14-11 19-13 6-11 10-21 11-27a90 90 0 0 0-30 40zM211 210v-1l1-1v-1h1v-1l1-1v-1c-8-10-15-16-20-16 0 6-5 17-10 27 4-1 11-1 19 2 2-4 5-6 8-7zM201 220c-10-4-19-1-20 0-12 3-31 24-37 32h11l23-5 15-3 2-10 6-14zM210 214c-7 4-11 19-13 30l12-3 1-27zM214 215l-2 26 19-3c-6-9-12-18-17-23zM278 231c-11-15-24-32-33-38-4-2-8-2-12-1-9 3-17 15-19 19 6 5 14 16 21 26l27-2c8 0 16 2 23 4l-5-7-2-1z"/>
  </g>
</svg>
