<svg version="1" xmlns="http://www.w3.org/2000/svg" width="933.333" height="933.333" viewBox="0 0 700.000000 700.000000"><path d="M486.9.4c-.2.2-2.4.7-4.9 1-2.5.4-5.6.9-7 1.1-2.9.5-5.8 1-16 2.4-6.7 1-10.8 1.5-23 2.6-1.9.2-6.2.6-9.5.9-35.5 3.6-103.9 4.1-145 1.1-11-.8-22-1.7-23.4-2-.9-.2-5.2-.6-9.6-.9-4.4-.4-8.7-.9-9.5-1.1-.8-.2-3.3-.6-5.5-.9-14.5-2-19.2-2.7-20.7-3.2-.9-.2-1.9-.1-2.1.3-.3.5-.8 13.2-1.2 28.3-.4 15.1-.8 30.4-1 34-.2 3.6-.6 12.6-1 20-.8 18-1.4 29.1-2 37-.2 3.6-.7 10.3-1 15-.4 4.7-.8 10.1-1 12-.2 1.9-.7 7.5-1.1 12.5-.3 4.9-.8 9.9-1 11-.2 1.1-.6 4.9-.9 8.5-.3 3.6-.8 8.1-1 10-.3 1.9-1.2 9.3-2 16.5-1.5 12.1-2.1 16.3-3 22.5-.2 1.4-.9 5.6-1.5 9.5-.6 3.8-1.3 8.3-1.6 10-.5 3.2-3 16.4-3.9 20.5-.3 1.4-.8 4.1-1.1 6-1.3 7.7-8.5 35.2-11.9 45.5-4.2 12.5-10.2 27.2-12.2 29.6-.7.8-1.3 2-1.3 2.5-.1.5-1.6 3.1-3.4 5.8l-3.4 4.9 10 11.6c13.5 15.6 13.5 15.5 20.4 24.1 16.7 20.8 46.4 62.6 51.1 72 .7 1.4 3.1 5.4 5.4 9 13.4 21.1 33.7 61.3 42.6 84.4 11 28.3 20.4 61.4 22.8 80.1.2 1.6.7 4.6 1 6.5 1.7 10.6 2.9 26 3 39.3v9.8l13.3-.2 13.2-.2V301.1l-16.1.1c-10.1 0-16.4-.3-17.1-1-1.5-1.5-1.4-24.2.2-25.2 1.6-1 90.4-1 92 0 .9.5 1.2 4.3 1.1 13 0 6.8-.2 12.5-.5 12.7-.2.2-7.9.4-17 .4l-16.6.1v398.5l13.2-.1 13.1-.1.3-12.5c.2-14 1.3-27.8 2.9-36 .2-1.4.7-4.5 1-7 1.2-8.4 6.4-30.4 10.4-43.8 6.8-22.5 14.8-43.1 25.3-65.1 3.3-6.9 6.4-13.5 6.9-14.6.5-1.1 3.2-6.1 5.9-11 2.8-5 5.7-10.4 6.6-12 .8-1.7 1.9-3.7 2.4-4.5.5-.8 4.5-7.4 8.8-14.5 21.7-35.7 44.9-67.6 72.5-99.6 7-8.2 12.7-15.3 12.7-15.9 0-.6-1.3-3.1-2.9-5.4-9.6-14-19.8-42.9-27.6-78.4-1.4-6.3-2.7-12.8-3-14.5-.3-1.8-1-5.5-1.5-8.2-1.6-7.9-1.7-8.7-2.4-14-.4-2.8-1.1-7.5-1.6-10.5s-1.1-7.3-1.4-9.5c-.3-2.2-.8-5.6-1.1-7.5-.3-1.9-.7-5.5-1-8-.5-5-1.3-11.7-2-17-.2-1.9-.7-6.4-1-10-.3-3.6-.8-8.1-1-10-.6-5.1-1.5-14.6-2-22-.3-3.6-.7-9-.9-12-1.3-15.9-2.3-31.8-3.1-51-.3-8-.8-17.4-1-21-.2-3.6-.7-19.1-1-34.5-.4-15.4-.9-28.3-1.1-28.7-.6-.9-1.8-1.1-2.5-.4zm-90.3 108.8c.8.8.7 24.9-.2 25.7-.7.7-92.2.7-92.9 0-1.1-1.2-.8-25.1.4-25.8 1.5-1 91.7-.8 92.7.1zm-.1 78c.9.9.9 24.7 0 25.6-.8.8-91.1 1.1-92.5.2-.5-.3-1-4.4-1-9-.3-15.2-.2-16.8 1.7-17.2 3.2-.6 91.2-.2 91.8.4z"/></svg>